<svg width="76" height="36" viewBox="0 0 76 36" fill="none" xmlns="http://www.w3.org/2000/svg">
<path d="M0.728 7.2V1.008H12.296V36H5.384V7.2H0.728ZM18.9346 18.048C18.9346 12.512 19.9266 8.176 21.9106 5.04C23.9266 1.904 27.2546 0.335999 31.8946 0.335999C36.5346 0.335999 39.8466 1.904 41.8306 5.04C43.8466 8.176 44.8546 12.512 44.8546 18.048C44.8546 23.616 43.8466 27.984 41.8306 31.152C39.8466 34.32 36.5346 35.904 31.8946 35.904C27.2546 35.904 23.9266 34.32 21.9106 31.152C19.9266 27.984 18.9346 23.616 18.9346 18.048ZM38.2306 18.048C38.2306 15.68 38.0706 13.696 37.7506 12.096C37.4626 10.464 36.8546 9.136 35.9266 8.112C35.0306 7.088 33.6866 6.576 31.8946 6.576C30.1026 6.576 28.7426 7.088 27.8146 8.112C26.9186 9.136 26.3106 10.464 25.9906 12.096C25.7026 13.696 25.5586 15.68 25.5586 18.048C25.5586 20.48 25.7026 22.528 25.9906 24.192C26.2786 25.824 26.8866 27.152 27.8146 28.176C28.7426 29.168 30.1026 29.664 31.8946 29.664C33.6866 29.664 35.0466 29.168 35.9746 28.176C36.9026 27.152 37.5106 25.824 37.7986 24.192C38.0866 22.528 38.2306 20.48 38.2306 18.048ZM66.4779 36L57.4539 24.672V36H50.7339V0.48H57.4539V20.688L66.3819 9.408H75.1179L63.4059 22.752L75.2139 36H66.4779Z" fill="#18063C"/>
</svg>
