<svg width="104" height="36" viewBox="0 0 104 36" fill="none" xmlns="http://www.w3.org/2000/svg">
<path d="M0.728 7.2V1.008H12.296V36H5.384V7.2H0.728ZM42.4546 6.816H26.9026V15.024C27.5746 14.192 28.5346 13.52 29.7826 13.008C31.0306 12.464 32.3586 12.192 33.7666 12.192C36.3266 12.192 38.4226 12.752 40.0546 13.872C41.6866 14.992 42.8706 16.432 43.6066 18.192C44.3426 19.92 44.7106 21.776 44.7106 23.76C44.7106 27.44 43.6546 30.4 41.5426 32.64C39.4626 34.88 36.4866 36 32.6146 36C28.9666 36 26.0546 35.088 23.8786 33.264C21.7026 31.44 20.4706 29.056 20.1826 26.112H26.7106C26.9986 27.392 27.6386 28.416 28.6306 29.184C29.6546 29.952 30.9506 30.336 32.5186 30.336C34.4066 30.336 35.8306 29.744 36.7906 28.56C37.7506 27.376 38.2306 25.808 38.2306 23.856C38.2306 21.872 37.7346 20.368 36.7426 19.344C35.7826 18.288 34.3586 17.76 32.4706 17.76C31.1266 17.76 30.0066 18.096 29.1106 18.768C28.2146 19.44 27.5746 20.336 27.1906 21.456H20.7586V0.912H42.4546V6.816ZM66.3373 36L57.3133 24.672V36H50.5933V0.48H57.3133V20.688L66.2413 9.408H74.9773L63.2653 22.752L75.0733 36H66.3373ZM103.729 21.84H94.6565V31.152H88.3205V21.84H79.2485V15.984H88.3205V6.672H94.6565V15.984H103.729V21.84Z" fill="#18063C"/>
</svg>
