<svg width="88" height="64" viewBox="0 0 86 37" fill="none" xmlns="http://www.w3.org/2000/svg">
<path d="M0.64 10.224C0.8 7.024 1.92 4.56 4 2.832C6.112 1.072 8.88 0.191998 12.304 0.191998C14.64 0.191998 16.64 0.607998 18.304 1.44C19.968 2.24 21.216 3.344 22.048 4.752C22.912 6.128 23.344 7.696 23.344 9.456C23.344 11.472 22.816 13.184 21.76 14.592C20.736 15.968 19.504 16.896 18.064 17.376V17.568C19.92 18.144 21.36 19.168 22.384 20.64C23.44 22.112 23.968 24 23.968 26.304C23.968 28.224 23.52 29.936 22.624 31.44C21.76 32.944 20.464 34.128 18.736 34.992C17.04 35.824 14.992 36.24 12.592 36.24C8.976 36.24 6.032 35.328 3.76 33.504C1.488 31.68 0.288 28.992 0.16 25.44H6.688C6.752 27.008 7.28 28.272 8.272 29.232C9.296 30.16 10.688 30.624 12.448 30.624C14.08 30.624 15.328 30.176 16.192 29.28C17.088 28.352 17.536 27.168 17.536 25.728C17.536 23.808 16.928 22.432 15.712 21.6C14.496 20.768 12.608 20.352 10.048 20.352H8.656V14.832H10.048C14.592 14.832 16.864 13.312 16.864 10.272C16.864 8.896 16.448 7.824 15.616 7.056C14.816 6.288 13.648 5.904 12.112 5.904C10.608 5.904 9.44 6.32 8.608 7.152C7.808 7.952 7.344 8.976 7.216 10.224H0.64ZM29.2784 18.048C29.2784 12.512 30.2704 8.176 32.2544 5.04C34.2704 1.904 37.5984 0.335999 42.2384 0.335999C46.8784 0.335999 50.1904 1.904 52.1744 5.04C54.1904 8.176 55.1984 12.512 55.1984 18.048C55.1984 23.616 54.1904 27.984 52.1744 31.152C50.1904 34.32 46.8784 35.904 42.2384 35.904C37.5984 35.904 34.2704 34.32 32.2544 31.152C30.2704 27.984 29.2784 23.616 29.2784 18.048ZM48.5744 18.048C48.5744 15.68 48.4144 13.696 48.0944 12.096C47.8064 10.464 47.1984 9.136 46.2704 8.112C45.3744 7.088 44.0304 6.576 42.2384 6.576C40.4464 6.576 39.0864 7.088 38.1584 8.112C37.2624 9.136 36.6544 10.464 36.3344 12.096C36.0464 13.696 35.9024 15.68 35.9024 18.048C35.9024 20.48 36.0464 22.528 36.3344 24.192C36.6224 25.824 37.2304 27.152 38.1584 28.176C39.0864 29.168 40.4464 29.664 42.2384 29.664C44.0304 29.664 45.3904 29.168 46.3184 28.176C47.2464 27.152 47.8544 25.824 48.1424 24.192C48.4304 22.528 48.5744 20.48 48.5744 18.048ZM76.8216 36L67.7976 24.672V36H61.0776V0.48H67.7976V20.688L76.7256 9.408H85.4616L73.7496 22.752L85.5576 36H76.8216Z" fill="#18063C"/>
</svg>
